<svg xmlns="http://www.w3.org/2000/svg" width="24" height="24" viewBox="0 0 24 24" fill="none" stroke="currentColor" stroke-width="2" stroke-linecap="round" stroke-linejoin="round" class="lucide lucide-recycle"><path d="M7 19H4.815a1.83 1.83 0 0 1-1.57-.881 1.785 1.785 0 0 1-.004-1.784L7.196 9.5"/><path d="M11 19h8.203a1.83 1.83 0 0 0 1.556-.89 1.784 1.784 0 0 0 0-1.775l-1.226-2.12"/><path d="m14 16-3 3 3 3"/><path d="M8.293 13.596 7.196 9.5 3.1 9.5"/><path d="m4.815 14.519-.254.444a1.784 1.784 0 0 0 .004 1.784 1.83 1.83 0 0 0 1.57.881H7"/><path d="M16.815 9.5H21l-1.226-2.12a1.784 1.784 0 0 0-0-1.775 1.83 1.83 0 0 0-1.556-.89H11"/><path d="m10 5 3-3 3 3"/><path d="M16.815 9.5 14 5l-4 5"/></svg>
